<svg width="167" height="36" viewBox="0 0 167 36" fill="none" xmlns="http://www.w3.org/2000/svg">
<g id="OP-logo" clip-path="url(#clip0_893_34132)">
<g id="Group">
<path id="Vector" d="M45.5657 18.5313C45.5657 15.3599 46.4228 12.8742 48.12 11.0913C49.8171 9.29133 52.0114 8.3999 54.7028 8.3999C56.4685 8.3999 58.0628 8.82847 59.4685 9.66847C60.8914 10.5085 61.9714 11.6913 62.7085 13.1999C63.4457 14.7085 63.8228 16.4228 63.8228 18.3256C63.8228 20.2628 63.4285 21.9942 62.6571 23.5199C61.8685 25.0456 60.7714 26.2113 59.3314 26.9999C57.8914 27.7885 56.3485 28.1828 54.6857 28.1828C52.8857 28.1828 51.2742 27.7542 49.8685 26.8799C48.4457 26.0056 47.3828 24.8228 46.6457 23.3313C45.9257 21.7885 45.5657 20.2113 45.5657 18.5313ZM48.1714 18.5656C48.1714 20.8628 48.7885 22.6799 50.0228 23.9999C51.2571 25.3199 52.8171 25.9885 54.6857 25.9885C56.5885 25.9885 58.1485 25.3199 59.3828 23.9828C60.6171 22.6456 61.2343 20.7428 61.2343 18.2913C61.2343 16.7313 60.9771 15.377 60.4457 14.2285C59.9142 13.0628 59.16 12.1713 58.1485 11.537C57.1371 10.9028 56.0057 10.577 54.7371 10.577C52.9542 10.577 51.4114 11.1942 50.1257 12.4285C48.8057 13.6456 48.1714 15.7028 48.1714 18.5656Z" fill="#3470FF"/>
<path id="Vector_2" d="M75.8056 22.7658L78.1027 23.0573C77.8456 24.6516 77.2113 25.8858 76.1656 26.7944C75.1198 27.6858 73.8513 28.1487 72.3427 28.1487C70.457 28.1487 68.9313 27.5315 67.7827 26.2973C66.6341 25.063 66.0513 23.2801 66.0513 20.983C66.0513 19.4916 66.2913 18.1887 66.7884 17.0573C67.2856 15.943 68.0398 15.103 69.0513 14.5373C70.0627 13.9716 71.1598 13.6973 72.3598 13.6973C73.8684 13.6973 75.0856 14.0744 76.0456 14.8287C77.0056 15.583 77.6056 16.663 77.8798 18.0687L75.5998 18.4287C75.377 17.503 74.9998 16.8001 74.4513 16.3373C73.9027 15.8744 73.2341 15.6344 72.4456 15.6344C71.2627 15.6344 70.3027 16.063 69.5656 16.903C68.8284 17.743 68.4513 19.0973 68.4513 20.9144C68.4513 22.7658 68.8113 24.1201 69.5141 24.9601C70.2341 25.8001 71.1598 26.2287 72.3084 26.2287C73.2341 26.2287 74.0056 25.9544 74.6056 25.3887C75.257 24.8058 75.6341 23.9316 75.8056 22.7658Z" fill="#3470FF"/>
<path id="Vector_3" d="M85.2342 25.7314L85.577 27.8057C84.9085 27.9428 84.3256 28.0114 83.8113 28.0114C82.9542 28.0114 82.3028 27.8742 81.8228 27.6C81.3599 27.3257 81.017 26.9828 80.8285 26.5371C80.6399 26.0914 80.537 25.1828 80.537 23.7771V15.8228H78.8228V14.0057H80.537V10.5771L82.8685 9.17139V14.0057H85.2342V15.8228H82.8685V23.9142C82.8685 24.5828 82.9028 25.0114 82.9885 25.2C83.0742 25.3885 83.2113 25.5428 83.3999 25.6628C83.5885 25.7828 83.8456 25.8342 84.2056 25.8342C84.4628 25.8171 84.8056 25.8 85.2342 25.7314Z" fill="#3470FF"/>
<path id="Vector_4" d="M86.657 20.914C86.657 18.3597 87.377 16.4568 88.7998 15.2225C89.9827 14.194 91.4398 13.6797 93.1541 13.6797C95.057 13.6797 96.617 14.2968 97.817 15.5483C99.017 16.7997 99.6341 18.514 99.6341 20.7083C99.6341 22.4911 99.3598 23.8968 98.8284 24.9083C98.297 25.9368 97.5084 26.7254 96.497 27.2911C95.4684 27.8568 94.3541 28.1311 93.1541 28.1311C91.217 28.1311 89.657 27.514 88.457 26.2625C87.257 25.0454 86.657 23.2454 86.657 20.914ZM89.0741 20.914C89.0741 22.6797 89.4684 24.0168 90.2398 24.8911C91.0113 25.7654 91.9884 26.2111 93.1541 26.2111C94.3198 26.2111 95.2798 25.7654 96.0513 24.874C96.8227 23.9825 97.217 22.6454 97.217 20.8283C97.217 19.114 96.8227 17.8283 96.0513 16.9368C95.2798 16.0625 94.3027 15.6168 93.1541 15.6168C91.9884 15.6168 91.0113 16.0625 90.2398 16.9368C89.4513 17.8111 89.0741 19.1483 89.0741 20.914Z" fill="#3470FF"/>
<path id="Vector_5" d="M102.36 33.1373V14.0058H104.503V15.8058C105 15.103 105.583 14.5716 106.217 14.2287C106.851 13.8687 107.623 13.6973 108.514 13.6973C109.697 13.6973 110.743 14.0058 111.634 14.6058C112.543 15.2058 113.211 16.063 113.674 17.1773C114.137 18.2916 114.36 19.4916 114.36 20.8116C114.36 22.2344 114.103 23.503 113.606 24.6344C113.108 25.7658 112.354 26.6401 111.394 27.2401C110.434 27.8401 109.406 28.1487 108.343 28.1487C107.554 28.1487 106.851 27.9773 106.234 27.6516C105.617 27.3258 105.103 26.8973 104.708 26.4001V33.1373H102.36ZM104.486 21.0001C104.486 22.783 104.846 24.103 105.566 24.943C106.286 25.8001 107.16 26.2116 108.188 26.2116C109.234 26.2116 110.126 25.7658 110.863 24.8916C111.6 24.0173 111.977 22.6458 111.977 20.7944C111.977 19.0287 111.617 17.7087 110.897 16.8344C110.177 15.9601 109.303 15.5144 108.291 15.5144C107.297 15.5144 106.406 15.9773 105.634 16.9201C104.88 17.863 104.486 19.2173 104.486 21.0001Z" fill="#3470FF"/>
<path id="Vector_6" d="M126.24 26.1258C125.366 26.863 124.543 27.3773 123.737 27.6858C122.931 27.9944 122.074 28.1487 121.149 28.1487C119.623 28.1487 118.457 27.7716 117.651 27.0344C116.829 26.2973 116.434 25.3373 116.434 24.1887C116.434 23.503 116.589 22.8858 116.897 22.3373C117.206 21.7716 117.617 21.3258 118.114 20.983C118.611 20.6401 119.177 20.383 119.794 20.2116C120.257 20.0916 120.943 19.9716 121.886 19.8516C123.771 19.6287 125.177 19.3544 126.069 19.0458C126.069 18.7201 126.086 18.5144 126.086 18.4287C126.086 17.4687 125.863 16.8001 125.417 16.4058C124.817 15.8744 123.926 15.6173 122.743 15.6173C121.646 15.6173 120.823 15.8058 120.309 16.2001C119.777 16.5944 119.4 17.263 119.143 18.2573L116.846 17.9487C117.051 16.9716 117.394 16.183 117.874 15.5658C118.354 14.9658 119.04 14.503 119.949 14.1773C120.857 13.8516 121.903 13.6973 123.086 13.6973C124.269 13.6973 125.229 13.8344 125.966 14.1087C126.703 14.383 127.251 14.743 127.594 15.1544C127.937 15.583 128.177 16.1144 128.331 16.7487C128.417 17.143 128.451 17.863 128.451 18.9087V22.0287C128.451 24.2058 128.503 25.5944 128.606 26.1601C128.709 26.743 128.897 27.2916 129.206 27.823H126.754C126.463 27.343 126.309 26.7773 126.24 26.1258ZM126.034 20.8973C125.177 21.2401 123.909 21.5316 122.211 21.7887C121.251 21.9258 120.566 22.0801 120.171 22.2516C119.777 22.423 119.469 22.6801 119.246 23.0058C119.023 23.3487 118.92 23.7087 118.92 24.1201C118.92 24.7373 119.16 25.2687 119.623 25.6801C120.103 26.0916 120.789 26.2973 121.697 26.2973C122.606 26.2973 123.411 26.0915 124.114 25.6973C124.817 25.303 125.331 24.7544 125.657 24.0687C125.914 23.5373 126.034 22.7658 126.034 21.7201V20.8973Z" fill="#3470FF"/>
<path id="Vector_7" d="M132.017 27.8401V14.0058H134.126V16.0973C134.657 15.1201 135.154 14.4687 135.617 14.1601C136.08 13.8516 136.577 13.6973 137.126 13.6973C137.914 13.6973 138.72 13.9544 139.543 14.4516L138.737 16.6287C138.171 16.2858 137.589 16.1144 137.023 16.1144C136.509 16.1144 136.046 16.2687 135.634 16.5773C135.223 16.8858 134.931 17.3144 134.76 17.863C134.503 18.703 134.366 19.6116 134.366 20.6058V27.8401H132.017Z" fill="#3470FF"/>
<path id="Vector_8" d="M139.989 23.7086L142.303 23.3486C142.44 24.2744 142.8 24.9944 143.383 25.4915C143.983 25.9886 144.806 26.2286 145.886 26.2286C146.966 26.2286 147.754 26.0058 148.286 25.5772C148.8 25.1315 149.074 24.6172 149.074 24.0344C149.074 23.5029 148.851 23.0915 148.389 22.7829C148.063 22.5772 147.274 22.3029 145.989 21.9944C144.274 21.5658 143.074 21.1886 142.406 20.8629C141.737 20.5544 141.24 20.1086 140.897 19.5429C140.554 18.9772 140.383 18.3601 140.383 17.6915C140.383 17.0744 140.52 16.5086 140.811 15.9772C141.086 15.4458 141.48 15.0172 141.96 14.6744C142.32 14.4001 142.817 14.1772 143.451 13.9886C144.086 13.8001 144.754 13.7144 145.474 13.7144C146.554 13.7144 147.514 13.8686 148.337 14.1772C149.16 14.4858 149.76 14.9144 150.154 15.4458C150.549 15.9772 150.806 16.6972 150.96 17.5886L148.663 17.8972C148.56 17.1772 148.251 16.6286 147.754 16.2344C147.257 15.8401 146.554 15.6344 145.646 15.6344C144.566 15.6344 143.794 15.8058 143.331 16.1658C142.869 16.5258 142.646 16.9372 142.646 17.4172C142.646 17.7258 142.749 18.0001 142.937 18.2401C143.126 18.4972 143.434 18.7029 143.829 18.8572C144.069 18.9429 144.754 19.1486 145.903 19.4572C147.566 19.9029 148.714 20.2629 149.383 20.5372C150.034 20.8115 150.549 21.2229 150.926 21.7715C151.303 22.3029 151.491 22.9715 151.491 23.7772C151.491 24.5658 151.269 25.3029 150.806 25.9886C150.343 26.6744 149.691 27.2058 148.834 27.5829C147.977 27.9601 147 28.1486 145.92 28.1486C144.12 28.1486 142.749 27.7715 141.806 27.0344C140.846 26.2801 140.246 25.1658 139.989 23.7086Z" fill="#3470FF"/>
<path id="Vector_9" d="M163.731 23.3825L166.149 23.674C165.771 25.0968 165.051 26.194 164.023 26.9654C162.994 27.7368 161.674 28.1311 160.063 28.1311C158.04 28.1311 156.429 27.514 155.246 26.2625C154.063 25.0111 153.463 23.2625 153.463 21.0168C153.463 18.6854 154.063 16.8854 155.263 15.5997C156.463 14.314 158.023 13.6797 159.926 13.6797C161.777 13.6797 163.286 14.314 164.451 15.5654C165.617 16.8168 166.217 18.5997 166.217 20.8797C166.217 21.0168 166.217 21.2225 166.2 21.4968H155.88C155.966 23.0225 156.394 24.1883 157.166 24.994C157.937 25.7997 158.897 26.2111 160.063 26.2111C160.92 26.2111 161.657 25.9883 162.257 25.5254C162.891 25.0797 163.371 24.3597 163.731 23.3825ZM156.034 19.594H163.766C163.663 18.4283 163.371 17.554 162.874 16.9711C162.12 16.0625 161.16 15.6168 159.977 15.6168C158.897 15.6168 157.989 15.9768 157.269 16.6968C156.514 17.4168 156.12 18.3768 156.034 19.594Z" fill="#3470FF"/>
</g>
<path id="Vector_10" d="M16.9542 2.17714C17.9485 2.17714 18.9085 2.29714 19.7999 2.50286C21.6171 2.94857 24.8914 4.26857 26.3314 7.97143L26.3657 8.07429C26.6742 8.88 27.1028 9.96 27.0342 12.5486C26.9828 14.5371 26.1257 16.2171 25.9542 16.5429C25.6114 17.1771 25.4399 17.7771 25.3885 18V18.0343C24.9599 19.5086 25.2685 21.1543 26.3142 23.0571C26.6057 23.5886 27.5142 24.9943 29.9142 27.2057C29.8114 27.1543 29.7085 27.0857 29.5885 27.0171C29.2799 26.7943 27.8742 25.8 27.1885 25.3543C27.1542 25.32 27.1028 25.3029 27.0685 25.2686C26.8628 25.1486 26.4171 24.9429 25.8685 24.9429C25.2171 24.9429 24.6342 25.2171 24.2228 25.7143C23.7771 26.28 23.6399 26.9829 23.8114 27.84C23.8285 27.9086 23.8457 27.96 23.8628 28.0286L24.7714 30.84L25.1828 32.0571C25.0971 31.9714 24.9942 31.8686 24.9257 31.7657C24.2057 30.8571 23.0399 29.2286 22.4399 28.3371C21.7714 27.24 20.4857 25.4057 19.0628 24.9771C18.7714 24.8914 18.4628 24.84 18.1714 24.84C17.5885 24.84 15.6171 25.0457 14.8285 27.8057C14.6399 28.4743 14.4857 29.0743 14.3314 29.6571C14.1771 30.2743 14.0057 30.9257 13.7999 31.6629C13.7828 31.6971 13.7828 31.7486 13.7657 31.7829C13.7657 31.7829 13.6457 32.3314 13.3885 33C13.3371 33.1371 13.2171 33.48 13.0799 33.72C13.0628 33.6514 13.0457 33.5486 13.0285 33.3771C13.0285 33.36 13.0285 33.3429 13.0285 33.3257C12.9257 31.8 12.9257 31.1829 12.9257 30.5486C12.9257 30.3086 12.9257 30.0686 12.9257 29.7771C12.9257 28.3371 12.6685 25.8686 10.9028 25.1486C10.6628 25.0457 10.3199 24.9429 9.89137 24.9429C9.44566 24.9429 8.75994 25.0629 8.09137 25.6457C8.07423 25.6629 8.07423 25.6629 8.05709 25.68C8.03994 25.6971 6.47994 27.1029 5.69137 27.7714C5.87994 27.2057 5.84566 26.6229 5.58851 26.1257C5.41709 25.8 5.15994 25.5257 4.85137 25.3543C6.11994 24.2229 6.5828 23.7771 6.80566 23.5029C7.79994 22.3543 9.03423 19.9029 8.0228 17.16C8.0228 17.1429 8.0228 17.1429 8.00566 17.1257C8.00566 17.1086 7.31994 15.3429 6.95994 13.2343C6.8228 12.4629 6.78851 9.49714 7.9028 7.28571C9.23994 4.64571 11.3657 3.01714 14.2285 2.45143C15.1542 2.26286 16.0628 2.17714 16.9542 2.17714ZM16.9542 0C15.8742 0 14.8114 0.12 13.8514 0.308571C9.47994 1.18286 7.25137 3.92571 6.08566 6.24C4.76566 8.86286 4.73137 12.2743 4.93709 13.4914C5.34851 15.8743 6.1028 17.8114 6.1028 17.8114C7.0628 20.4171 5.10851 22.4571 5.10851 22.4571C5.0228 22.6629 2.17709 25.1143 1.85137 25.4229C1.52566 25.7314 0.634229 26.4857 0.0856575 27.3086C-0.171485 27.7886 0.171372 28.1143 0.617086 28.1143C0.685658 28.1143 0.754229 28.1143 0.805657 28.0971C1.19994 28.0114 3.20566 27.1714 3.20566 27.1714C3.35994 27.12 3.47994 27.1029 3.54851 27.1029C3.90851 27.1029 3.5828 27.5486 3.5828 27.5486L1.71423 30.0686C0.4628 31.8343 0.719943 32.3657 1.07994 32.6571C1.1828 32.7429 1.31994 32.7771 1.50851 32.7771C1.9028 32.7771 2.43423 32.5886 2.94851 32.3314C3.68566 31.9543 5.87994 30.2057 6.51423 29.6571C7.14851 29.1257 9.2228 27.2571 9.2228 27.2571C9.4628 27.0514 9.66851 27 9.8228 27C9.97709 27 10.0799 27.0514 10.0799 27.0514C10.9885 27.3771 10.9885 30.0171 10.9885 30.0171C11.0057 31.08 10.9542 31.5257 11.1085 33.72C11.1771 35.5543 12.4285 35.9486 13.0114 35.9829C13.0628 35.9829 13.1142 35.9829 13.1657 35.9829C13.8171 35.9829 14.1599 35.7429 14.4342 35.4C14.6914 35.0914 14.8971 34.68 15.1714 33.9257C15.4799 33.0857 15.6171 32.4343 15.6171 32.4343C16.0457 30.9257 16.2685 29.8629 16.6628 28.5086C16.9885 27.3771 17.5885 26.88 18.2057 26.88C18.3257 26.88 18.4457 26.8971 18.5657 26.9314C19.5428 27.2229 20.9485 29.5371 20.9485 29.5371C21.5657 30.4629 22.8171 32.2114 23.5885 33.1714C23.7257 33.3429 24.5142 34.32 25.4914 34.6629C25.7828 34.7657 26.0571 34.8 26.2971 34.8C26.8114 34.8 27.1371 34.6286 27.1371 34.6286C28.0457 34.1657 27.4114 32.4343 27.4285 32.4171L26.7771 30.4286L25.8514 27.5657C25.7485 27.0514 25.9028 26.9486 26.0571 26.9486C26.1942 26.9486 26.3314 27.0171 26.3314 27.0171C27.0857 27.5143 28.7828 28.7314 28.7828 28.7314C30.9085 30.0171 32.6399 30.1371 32.6399 30.1371C32.9999 30.1886 33.2914 30.2229 33.5657 30.2229C34.4057 30.2229 34.7657 29.9829 34.9885 29.8457C35.2628 29.6571 35.4342 29.3143 35.3999 29.0914C35.3657 28.8857 34.9885 28.6457 34.9885 28.6457C34.8514 28.5429 33.3428 27.5314 32.4857 26.8114C29.5199 24.2571 28.4742 22.6971 28.1828 22.1829C27.2057 20.4171 27.1714 19.3029 27.3942 18.5314C27.4285 18.3943 27.5657 17.88 27.8228 17.4C28.0114 17.04 29.0914 14.9829 29.1428 12.48C29.2285 9.36 28.6457 8.00571 28.2857 7.09714C26.6057 2.81143 22.9542 1.02857 20.3142 0.377143C19.1999 0.12 18.0514 0 16.9542 0Z" fill="#3470FF"/>
</g>
<defs>
<clipPath id="clip0_893_34132">
<rect width="166.234" height="36" fill="white"/>
</clipPath>
</defs>
</svg>
